# xmcd
#
# Track frame offsets: 
#        150
#        19320
#        32879
#        50818
#        65158
#        81165
#        94668
#        108754
#        125036
#        141032
#        156542
#        169377
#        186171
#        200961
#        213611
#        232644
#        247406
#        262296
#        278007
#        291011
#        306847
#
# Disc length: 4306 seconds
#
# Revision: 0
# Processed by: cddbd v1.4PL0 Copyright (c) Steve Scherf et al.
# Submitted via: ExactAudioCopy v0.90b3
#
DISCID=5210d015
DTITLE=Alabama - 41 And Counting (17 Years Of No.1's) - Disc 2
DYEAR=1900
DGENRE=Country
TTITLE0=You've Got The Touch
TTITLE1=Face To Face
TTITLE2=Fallin' Again
TTITLE3=Song Of The South
TTITLE4=If I Had You
TTITLE5=High Cotton
TTITLE6=Southern Star
TTITLE7=Jukebox In My Mind
TTITLE8=Forever's As Far As I'll Go
TTITLE9=Down Home
TTITLE10=Here We Are
TTITLE11=Then Again
TTITLE12=Born Country
TTITLE13=I'm In A Hurry
TTITLE14=Once Upon A Lifetime
TTITLE15=Hometown Honeymoon
TTITLE16=Reckless
TTITLE17=Give Me One More Shot
TTITLE18=She Ain't Your Ordinary Girl
TTITLE19=In Pictures
TTITLE20=Sad Lookin' Moon
EXTD=
EXTT0=
EXTT1=
EXTT2=
EXTT3=
EXTT4=
EXTT5=
EXTT6=
EXTT7=
EXTT8=
EXTT9=
EXTT10=
EXTT11=
EXTT12=
EXTT13=
EXTT14=
EXTT15=
EXTT16=
EXTT17=
EXTT18=
EXTT19=
EXTT20=
PLAYORDER=
